<svg width="48" height="48" viewBox="0 0 48 48" fill="none" xmlns="http://www.w3.org/2000/svg">
<path d="M18.5801 31.76L26.3401 24L18.5801 16.24C18.395 16.0548 18.2481 15.835 18.1479 15.5931C18.0477 15.3511 17.9961 15.0918 17.9961 14.83C17.9961 14.5681 18.0477 14.3088 18.1479 14.0669C18.2481 13.825 18.395 13.6051 18.5801 13.42C18.7653 13.2348 18.9851 13.0879 19.227 12.9877C19.469 12.8875 19.7283 12.8359 19.9901 12.8359C20.252 12.8359 20.5113 12.8875 20.7532 12.9877C20.9952 13.0879 21.215 13.2348 21.4001 13.42L30.5801 22.6C31.3601 23.38 31.3601 24.64 30.5801 25.42L21.4001 34.6C21.2151 34.7854 20.9953 34.9325 20.7534 35.0328C20.5114 35.1332 20.2521 35.1849 19.9901 35.1849C19.7282 35.1849 19.4688 35.1332 19.2269 35.0328C18.9849 34.9325 18.7652 34.7854 18.5801 34.6C17.8201 33.82 17.8001 32.54 18.5801 31.76Z" fill="#000"/>
</svg>
