<svg width="48" height="48" viewBox="0 0 48 48" fill="none" xmlns="http://www.w3.org/2000/svg">
<path d="M29.4199 16.24L21.6599 24L29.4199 31.76C29.605 31.9452 29.7519 32.165 29.8521 32.4069C29.9523 32.6489 30.0039 32.9082 30.0039 33.17C30.0039 33.4319 29.9523 33.6912 29.8521 33.9331C29.7519 34.175 29.605 34.3949 29.4199 34.58C29.2347 34.7652 29.0149 34.9121 28.773 35.0123C28.531 35.1125 28.2717 35.1641 28.0099 35.1641C27.748 35.1641 27.4887 35.1125 27.2468 35.0123C27.0048 34.9121 26.785 34.7652 26.5999 34.58L17.4199 25.4C16.6399 24.62 16.6399 23.36 17.4199 22.58L26.5999 13.4C26.7849 13.2146 27.0047 13.0675 27.2466 12.9672C27.4886 12.8668 27.7479 12.8151 28.0099 12.8151C28.2718 12.8151 28.5312 12.8668 28.7731 12.9672C29.0151 13.0675 29.2348 13.2146 29.4199 13.4C30.1799 14.18 30.1999 15.46 29.4199 16.24Z" fill="#000"/>
</svg>
